<svg width="200" height="208" viewBox="0 0 200 208" fill="none" xmlns="http://www.w3.org/2000/svg">
<path d="M193.475 100.246H6.52515V207.016H193.475V100.246Z" fill="#BF1A0B"/>
<path d="M29.2652 207.016H11.8796L6.52515 195.24V156.869L29.2652 207.016Z" fill="#EB1E1E"/>
<path d="M64.0365 207.016H46.6509L6.52515 118.519V100.246H15.6298L64.0365 207.016Z" fill="#EB1E1E"/>
<path d="M98.8295 207.016H81.4438L33.0155 100.246L32.842 99.8767H50.2277L50.4228 100.246L98.8295 207.016Z" fill="#EB1E1E"/>
<path d="M133.601 207.016H116.215L67.8084 100.246L67.635 99.8767H85.0207L85.1941 100.246L133.601 207.016Z" fill="#EB1E1E"/>
<path d="M168.394 207.016H151.008L102.58 100.246L102.406 99.8767H119.792L119.965 100.246L168.394 207.016Z" fill="#EB1E1E"/>
<path d="M193.475 185.636V207.016H185.779L137.373 100.246L137.199 99.8767H154.585L154.758 100.246L193.475 185.636Z" fill="#EB1E1E"/>
<path d="M193.475 108.937V147.287L172.144 100.246L171.971 99.8767H189.356L189.53 100.246L193.475 108.937Z" fill="#EB1E1E"/>
<g opacity="0.2" style="mix-blend-mode:multiply">
<path d="M193.475 100.246H6.52515V112.544H193.475V100.246Z" fill="#993C3C"/>
</g>
<path d="M10.6006 29.8266C10.6006 29.8266 17.169 57.5946 59.2674 65.3948H82.8096C82.8096 65.3948 29.2652 47.6433 29.1785 0.168213L10.6006 29.8266Z" fill="#FF9304"/>
<path d="M92.0227 65.373C92.0227 65.373 55.4521 19.8752 10.6006 29.8265C10.6006 29.8265 12.4649 20.1576 29.1568 0.168134C29.1568 0.168134 77.9104 -6.21982 100.26 65.3948H92.001L92.0227 65.373Z" fill="#F2A007"/>
<path d="M189.941 29.8266C189.941 29.8266 183.373 57.5946 141.275 65.3948H117.732C117.732 65.3948 171.298 47.6433 171.385 0.168213L189.941 29.8266Z" fill="#FF9304"/>
<path d="M108.541 65.373C108.541 65.373 145.112 19.8752 189.941 29.8047C189.941 29.8047 188.077 20.1359 171.385 0.146406C171.385 0.146406 122.632 -6.24154 100.282 65.373H108.541Z" fill="#F2A007"/>
<path d="M53.9778 4.81795L44.5263 31.9124C39.2152 30.1525 33.6006 28.9357 27.7693 28.5446L37.611 0.320312C41.9466 0.82005 47.6696 2.0368 53.9995 4.81795H53.9778Z" fill="#FFC746"/>
<path d="M63.3862 9.96742L54.3682 35.8669C52.6773 35.0629 50.9214 34.3025 49.1438 33.5637L58.4002 6.96899C60.0478 7.85983 61.6953 8.85931 63.3862 9.94569V9.96742Z" fill="#FFC746"/>
<path d="M200 65.373H0V100.224H200V65.373Z" fill="#BF1A0B"/>
<path d="M117.993 63.6565H82.0073C81.1402 63.6565 80.4465 64.3518 80.4465 65.2209V100.224L84.8038 206.994H115.24L119.597 100.224V65.2209C119.597 64.3518 118.903 63.6565 118.036 63.6565H117.993Z" fill="#F2A007"/>
<path d="M119.38 104.483L118.621 122.995L80.75 108.35L80.4248 100.246V89.4473L119.38 104.483Z" fill="#FFC746"/>
<path d="M118.339 129.904L117.971 139.16L81.4437 125.016L81.0535 115.499L118.339 129.904Z" fill="#FFC746"/>
<path d="M42.8788 65.373H41.99V91.4463H42.8788V65.373Z" fill="#FFBA30"/>
<path d="M59.1588 104.657L46.564 91.7505C44.3095 89.4474 40.6026 89.4474 38.3481 91.7505L25.7532 104.657C24.7127 105.743 24.1057 107.177 24.1057 108.676V147.613C24.1057 150.785 26.6854 153.37 29.8503 153.37H55.0617C58.2267 153.37 60.8063 150.785 60.8063 147.613V108.676C60.8063 107.177 60.221 105.721 59.1588 104.657ZM42.4452 108.981C39.1502 108.981 36.4838 106.308 36.4838 103.006C36.4838 99.7029 39.1502 97.0304 42.4452 97.0304C45.7402 97.0304 48.4066 99.7029 48.4066 103.006C48.4066 106.308 45.7402 108.981 42.4452 108.981Z" fill="white"/>
<path d="M55.7554 118.888H29.1133V124.95H55.7554V118.888Z" fill="#736D6D"/>
<path d="M55.7554 129.057H29.1133V135.119H55.7554V129.057Z" fill="#736D6D"/>
<path d="M55.7554 139.204H29.1133V145.266H55.7554V139.204Z" fill="#736D6D"/>
<path d="M42.6837 89.2952H42.2068C41.8716 89.2952 41.5999 89.5675 41.5999 89.9035V97.1389C41.5999 97.4749 41.8716 97.7472 42.2068 97.7472H42.6837C43.019 97.7472 43.2907 97.4749 43.2907 97.1389V89.9035C43.2907 89.5675 43.019 89.2952 42.6837 89.2952Z" fill="#FFBA30"/>
</svg>
